<?xml version="1.0" encoding="UTF-8"?>
<svg id="Layer_1" data-name="Layer 1" xmlns="http://www.w3.org/2000/svg" viewBox="0 0 288.94 76.22">
  <defs>
    <style>
      .cls-1 {
        fill: #231f20;
      }
    </style>
  </defs>
  <path class="cls-1" d="M.6,66.16c.85-.51,1.61-1.48,2.26-2.9.65-1.42,1.22-3.04,1.7-4.86s.84-3.71,1.07-5.67c.23-1.96.34-3.77.34-5.42,0-2.55-.27-5-.81-7.33s-1.29-4.09-2.26-5.29c.91-.91,1.66-2.12,2.26-3.63.6-1.5,1.07-3.12,1.41-4.86s.57-3.51.68-5.33.17-3.52.17-5.11c0-1.31-.03-2.44-.09-3.41-.06-.96-.11-1.7-.17-2.21-1.31-.46-2.66-1.39-4.05-2.82C1.72,5.91.68,4.37,0,2.73c3.64.4,7.09.67,10.36.8,3.27.15,6.35.22,9.25.22,6.2,0,11.19-.19,15-.6,3.81-.4,6.82-.6,9.04-.6.45,0,.85.01,1.19.04.34.03.66.08.94.13-.34.62-.7,1.76-1.07,3.41-.37,1.65-.73,3.46-1.07,5.42-.34,1.96-.64,3.86-.9,5.71-.25,1.85-.44,3.23-.55,4.14l-.6.26c-1.99-1.14-3.43-2.41-4.31-3.84s-1.55-3.13-2-5.12c-.8-.62-1.79-1.02-2.98-1.19-1.19-.17-2.7-.25-4.52-.25-1.48,0-2.9.03-4.26.08-1.36.06-2.44.08-3.24.08-.46,2.22-.8,4.92-1.02,8.1-.23,3.18-.4,6.57-.51,10.15.79.11,1.61.18,2.43.21.82.03,1.46.05,1.92.05,1.19,0,2.37-.47,3.54-1.41s2.29-2.14,3.37-3.62c.28.68.57,1.46.85,2.35s.61,1.76.98,2.64c.37.89.78,1.72,1.24,2.52s.99,1.39,1.62,1.79c-.51.51-1.01,1.17-1.49,1.96-.49.79-.94,1.64-1.36,2.55-.43.91-.83,1.82-1.19,2.73-.37.92-.7,1.73-.98,2.48-.34-.62-.74-1.31-1.19-2.05s-.94-1.42-1.45-2.05c-.51-.62-1.07-1.15-1.66-1.57-.6-.43-1.24-.64-1.92-.64-.51,0-1.25.03-2.22.08-.97.06-1.85.17-2.64.34v1.53c0,3.58.04,6.98.13,10.19.08,3.21.24,6.01.47,8.4l14.41,1.45c.8-3.52,2.2-6.65,4.22-9.38,2.02-2.73,4.19-5.37,6.52-7.93l.51.17c-.17,1.3-.28,2.6-.34,3.88s-.08,2.52-.08,3.71c0,2.96.14,5.63.42,8.01s.63,4.18,1.02,5.37c-.96.11-1.92.27-2.86.46-.94.2-1.95.53-3.03.99-1.08.45-2.23,1.08-3.46,1.87s-2.57,1.82-4.05,3.07c-4.77-1.42-9.49-2.48-14.15-3.19-4.66-.71-8.87-1.07-12.62-1.07-1.82,0-3.5.28-5.03.85l-.09-.26Z"/>
  <path class="cls-1" d="M105.46,62.83c-2.39,1.71-4.25,3.76-5.59,6.18-1.34,2.41-2.4,4.82-3.2,7.2-.28-1.14-.7-2.36-1.24-3.66-.54-1.31-1.21-2.57-2-3.8-.8-1.22-1.72-2.36-2.77-3.41-1.05-1.05-2.2-1.89-3.45-2.51.51-.51.9-1.18,1.15-2.01.25-.83.45-1.99.6-3.5.14-1.51.24-3.42.3-5.75.06-2.33.14-5.26.25-8.78-.23-.11-.98-.65-2.26-1.62-1.28-.97-2.66-2.05-4.14-3.24-1.99,1.19-3.94,2.36-5.84,3.49-1.9,1.14-3.65,2.19-5.25,3.16.23,4.27.56,8.28.98,12.07s1.01,7.23,1.75,10.36c-1.48-.74-2.8-1.25-3.97-1.53s-2.29-.43-3.37-.43c-.97,0-1.92.09-2.86.26-.94.17-1.9.35-2.9.56-.99.2-2.03.38-3.11.56-1.08.17-2.27.26-3.58.26h-.94c-.34,0-.66-.03-.94-.09,1.2-.74,2.3-1.71,3.33-2.93,1.02-1.23,1.9-2.57,2.64-4.05s1.32-3.04,1.75-4.69c.42-1.65.64-3.27.64-4.86,0-2.9-.34-5.73-1.02-8.49s-1.76-5.04-3.24-6.86c1.59-2.96,2.67-5.76,3.24-8.4s.85-5.27.85-7.88c0-1.53-.09-3.21-.26-5.03-2.39-.34-4.22-1.24-5.5-2.69s-1.92-3.71-1.92-6.78c2.39.51,4.35.87,5.88,1.06,1.53.2,3.09.3,4.69.3.91,0,1.9-.04,2.99-.12,1.08-.08,2.23-.3,3.45-.64,1.22-.34,2.54-.87,3.97-1.58,1.42-.71,2.92-1.69,4.52-2.93.62.51,1.88,1.17,3.75,1.96,1.88.8,4.07,1.57,6.57,2.3s5.16,1.37,7.97,1.87c2.81.51,5.47.77,7.97.77.79,0,1.56-.03,2.3-.08.74-.06,1.51-.15,2.3-.26-.63,1.3-1.85,2.66-3.67,4.05-1.82,1.39-3.84,2.52-6.05,3.37-.17.8-.26,1.64-.26,2.55s.05,1.88.13,2.9c.09,1.03.2,2.05.34,3.07.14,1.02.33,1.98.56,2.89s.48,1.68.77,2.3c-.57.17-1.55.61-2.94,1.33-1.39.71-3.05,1.63-4.99,2.77,1.3,1.19,2.73,2.44,4.26,3.75,1.53,1.3,3.09,2.44,4.69,3.41-.28.62-.5,1.71-.64,3.24s-.21,3.3-.21,5.29c0,1.48.06,2.97.17,4.48.11,1.51.31,2.96.6,4.35.28,1.39.64,2.66,1.07,3.8s.98,2.04,1.66,2.73ZM88.07,13.38c-3.07-.46-5.91-.85-8.53-1.19-2.62-.34-5.2-.83-7.76-1.45-.11,1.42-.17,2.96-.17,4.6v18.42c1.82-1.08,3.69-2.18,5.63-3.29,1.93-1.1,3.72-2.13,5.37-3.07,1.65-.94,3.01-1.73,4.09-2.39s1.68-1.03,1.79-1.15l-.43-10.48Z"/>
  <path class="cls-1" d="M165.48,62.83c-2.39,1.71-4.25,3.76-5.59,6.18-1.34,2.41-2.4,4.82-3.2,7.2-.28-1.14-.7-2.36-1.24-3.66-.54-1.31-1.21-2.57-2-3.8-.8-1.22-1.72-2.36-2.77-3.41-1.05-1.05-2.2-1.89-3.45-2.51.51-.51.9-1.18,1.15-2.01.25-.83.45-1.99.6-3.5.14-1.51.24-3.42.3-5.75.06-2.33.14-5.26.25-8.78-.23-.11-.98-.65-2.26-1.62-1.28-.97-2.66-2.05-4.14-3.24-1.99,1.19-3.94,2.36-5.84,3.49-1.9,1.14-3.65,2.19-5.25,3.16.23,4.27.56,8.28.98,12.07s1.01,7.23,1.75,10.36c-1.48-.74-2.8-1.25-3.97-1.53s-2.29-.43-3.37-.43c-.97,0-1.92.09-2.86.26-.94.17-1.9.35-2.9.56-.99.2-2.03.38-3.11.56-1.08.17-2.27.26-3.58.26h-.94c-.34,0-.66-.03-.94-.09,1.2-.74,2.3-1.71,3.33-2.93,1.02-1.23,1.9-2.57,2.64-4.05s1.32-3.04,1.75-4.69c.42-1.65.64-3.27.64-4.86,0-2.9-.34-5.73-1.02-8.49s-1.76-5.04-3.24-6.86c1.59-2.96,2.67-5.76,3.24-8.4s.85-5.27.85-7.88c0-1.53-.09-3.21-.26-5.03-2.39-.34-4.22-1.24-5.5-2.69s-1.92-3.71-1.92-6.78c2.39.51,4.35.87,5.88,1.06,1.53.2,3.09.3,4.69.3.91,0,1.9-.04,2.99-.12,1.08-.08,2.23-.3,3.45-.64,1.22-.34,2.54-.87,3.97-1.58,1.42-.71,2.92-1.69,4.52-2.93.62.51,1.88,1.17,3.75,1.96,1.88.8,4.07,1.57,6.57,2.3s5.16,1.37,7.97,1.87c2.81.51,5.47.77,7.97.77.79,0,1.56-.03,2.3-.08.74-.06,1.51-.15,2.3-.26-.63,1.3-1.85,2.66-3.67,4.05-1.82,1.39-3.84,2.52-6.05,3.37-.17.8-.26,1.64-.26,2.55s.05,1.88.13,2.9c.09,1.03.2,2.05.34,3.07.14,1.02.33,1.98.56,2.89s.48,1.68.77,2.3c-.57.17-1.55.61-2.94,1.33-1.39.71-3.05,1.63-4.99,2.77,1.3,1.19,2.73,2.44,4.26,3.75,1.53,1.3,3.09,2.44,4.69,3.41-.28.62-.5,1.71-.64,3.24s-.21,3.3-.21,5.29c0,1.48.06,2.97.17,4.48.11,1.51.31,2.96.6,4.35.28,1.39.64,2.66,1.07,3.8s.98,2.04,1.66,2.73ZM148.09,13.38c-3.07-.46-5.91-.85-8.53-1.19-2.62-.34-5.2-.83-7.76-1.45-.11,1.42-.17,2.96-.17,4.6v18.42c1.82-1.08,3.69-2.18,5.63-3.29,1.93-1.1,3.72-2.13,5.37-3.07,1.65-.94,3.01-1.73,4.09-2.39s1.68-1.03,1.79-1.15l-.43-10.48Z"/>
  <path class="cls-1" d="M173.41,35.29c.74-.8,1.41-1.8,2.01-3.03.6-1.23,1.12-2.56,1.57-4.01s.81-2.97,1.07-4.56c.25-1.6.38-3.16.38-4.69,0-2.62-.4-5.09-1.19-7.42-.8-2.33-2.1-4.04-3.92-5.12,1.76-.11,3.68-.34,5.75-.68s4.16-.76,6.27-1.28c2.1-.51,4.12-1.07,6.05-1.67s3.64-1.24,5.11-1.91c1.88.28,4.11.75,6.7,1.4,2.58.66,5.16,1.33,7.72,2.01,2.56.69,4.9,1.31,7.03,1.88,2.13.57,3.68.88,4.65.94-.8,1.3-1.37,2.94-1.71,4.9-.34,1.96-.51,4-.51,6.1,0,3.18.4,6.35,1.19,9.51.79,3.16,1.93,5.72,3.41,7.72-1.42,1.76-2.59,4.16-3.5,7.2-.91,3.05-1.36,6.18-1.36,9.42,0,2.62.4,5.06,1.19,7.33.79,2.28,2.1,3.98,3.92,5.11-1.76.12-3.71.34-5.84.69-2.13.34-4.26.76-6.39,1.28-2.13.51-4.19,1.06-6.18,1.66-1.99.6-3.69,1.24-5.12,1.92-1.87-.23-4.09-.65-6.65-1.28-2.56-.63-5.1-1.28-7.63-1.96s-4.85-1.32-6.95-1.91-3.61-.96-4.52-1.07c.8-.74,1.35-1.95,1.67-3.62.31-1.68.47-3.59.47-5.76,0-1.98-.13-4.07-.39-6.27-.25-2.19-.6-4.2-1.02-6.05s-.92-3.4-1.49-4.65-1.17-1.96-1.79-2.13ZM188.76,56.52c1.02.57,1.96,1.08,2.81,1.54.85.45,1.72.87,2.6,1.24s1.84.69,2.86.98,2.19.54,3.49.77c2.39-1.19,4.29-1.98,5.71-2.35,1.42-.37,2.36-.69,2.81-.99.11-5.51.21-11.3.3-17.35.09-6.06.13-11.81.13-17.26v-4.23c0-1.39-.06-2.74-.17-4.05-1.02-.57-1.96-1.08-2.81-1.54-.85-.45-1.72-.86-2.6-1.24-.88-.37-1.82-.69-2.81-.98s-2.15-.54-3.45-.77c-2.39,1.19-4.31,2.02-5.76,2.48-1.45.45-2.4.83-2.86,1.1-.06,1.42-.11,3.14-.17,5.16-.06,2.02-.1,4.19-.12,6.52-.03,2.33-.05,4.77-.05,7.33v7.5c0,2.56.01,5.31.05,8.27.03,2.96.04,5.57.04,7.84Z"/>
  <path class="cls-1" d="M284.42,62.83c-2.39,1.71-4.25,3.76-5.59,6.18-1.34,2.41-2.4,4.82-3.2,7.2-.28-1.14-.7-2.36-1.24-3.66-.54-1.31-1.21-2.57-2-3.8-.8-1.22-1.72-2.36-2.77-3.41-1.05-1.05-2.2-1.89-3.45-2.51.51-.51.9-1.18,1.15-2.01.25-.83.45-1.99.6-3.5.14-1.51.24-3.42.3-5.75.06-2.33.14-5.26.25-8.78-.23-.11-.98-.65-2.26-1.62-1.28-.97-2.66-2.05-4.14-3.24-1.99,1.19-3.94,2.36-5.84,3.49-1.9,1.14-3.65,2.19-5.25,3.16.23,4.27.56,8.28.98,12.07s1.01,7.23,1.75,10.36c-1.48-.74-2.8-1.25-3.97-1.53s-2.29-.43-3.37-.43c-.97,0-1.92.09-2.86.26-.94.17-1.9.35-2.9.56-.99.2-2.03.38-3.11.56-1.08.17-2.27.26-3.58.26h-.94c-.34,0-.66-.03-.94-.09,1.2-.74,2.3-1.71,3.33-2.93,1.02-1.23,1.9-2.57,2.64-4.05s1.32-3.04,1.75-4.69c.42-1.65.64-3.27.64-4.86,0-2.9-.34-5.73-1.02-8.49s-1.76-5.04-3.24-6.86c1.59-2.96,2.67-5.76,3.24-8.4s.85-5.27.85-7.88c0-1.53-.09-3.21-.26-5.03-2.39-.34-4.22-1.24-5.5-2.69s-1.92-3.71-1.92-6.78c2.39.51,4.35.87,5.88,1.06,1.53.2,3.09.3,4.69.3.91,0,1.9-.04,2.99-.12,1.08-.08,2.23-.3,3.45-.64,1.22-.34,2.54-.87,3.97-1.58,1.42-.71,2.92-1.69,4.52-2.93.62.51,1.88,1.17,3.75,1.96,1.88.8,4.07,1.57,6.57,2.3s5.16,1.37,7.97,1.87c2.81.51,5.47.77,7.97.77.79,0,1.56-.03,2.3-.08.74-.06,1.51-.15,2.3-.26-.63,1.3-1.85,2.66-3.67,4.05-1.82,1.39-3.84,2.52-6.05,3.37-.17.8-.26,1.64-.26,2.55s.05,1.88.13,2.9c.09,1.03.2,2.05.34,3.07.14,1.02.33,1.98.56,2.89s.48,1.68.77,2.3c-.57.17-1.55.61-2.94,1.33-1.39.71-3.05,1.63-4.99,2.77,1.3,1.19,2.73,2.44,4.26,3.75,1.53,1.3,3.09,2.44,4.69,3.41-.28.62-.5,1.71-.64,3.24s-.21,3.3-.21,5.29c0,1.48.06,2.97.17,4.48.11,1.51.31,2.96.6,4.35.28,1.39.64,2.66,1.07,3.8s.98,2.04,1.66,2.73ZM267.03,13.38c-3.07-.46-5.91-.85-8.53-1.19-2.62-.34-5.2-.83-7.76-1.45-.11,1.42-.17,2.96-.17,4.6v18.42c1.82-1.08,3.69-2.18,5.63-3.29,1.93-1.1,3.72-2.13,5.37-3.07,1.65-.94,3.01-1.73,4.09-2.39s1.68-1.03,1.79-1.15l-.43-10.48Z"/>
</svg>